<?xml version="1.0" standalone="no"?>
<!DOCTYPE svg PUBLIC "-//W3C//DTD SVG 20010904//EN"
 "http://www.w3.org/TR/2001/REC-SVG-20010904/DTD/svg10.dtd">
<svg version="1.0" xmlns="http://www.w3.org/2000/svg"
 width="700.000000pt" height="700.000000pt" viewBox="0 0 700.000000 700.000000"
 preserveAspectRatio="xMidYMid meet">
<metadata>
Created by potrace 1.14, written by Peter Selinger 2001-2017
</metadata>
<g transform="translate(0.000000,700.000000) scale(0.100000,-0.100000)"
fill="#000000" stroke="none">
<path d="M3448 6685 c-1 -2 -57 -6 -123 -9 -122 -7 -139 -8 -280 -27 -297 -39
-645 -145 -925 -282 -109 -53 -265 -139 -268 -148 -2 -5 -8 -9 -13 -9 -21 0
-306 -203 -394 -280 -118 -105 -158 -143 -240 -228 -119 -124 -173 -190 -313
-377 -21 -28 -133 -207 -159 -255 -81 -147 -98 -179 -147 -293 -82 -188 -176
-479 -202 -627 -4 -25 -8 -47 -9 -50 -15 -62 -42 -267 -50 -380 -5 -69 -6
-347 -1 -420 14 -205 53 -450 96 -600 28 -100 83 -279 95 -305 7 -16 25 -61
40 -100 44 -109 143 -309 206 -415 404 -675 1016 -1163 1769 -1410 101 -33
327 -90 415 -103 17 -3 59 -10 95 -15 214 -34 611 -43 780 -17 19 3 60 7 90
11 185 19 441 80 649 154 590 209 1092 576 1478 1080 49 64 147 206 169 245
78 137 140 248 156 285 11 25 36 78 54 118 19 41 34 76 34 79 0 3 6 19 14 36
14 30 84 235 92 267 2 8 10 40 19 70 35 127 74 339 90 490 14 128 20 428 11
525 -2 22 -7 74 -10 115 -4 41 -8 86 -10 100 -3 14 -7 48 -11 75 -18 143 -85
407 -149 585 -181 509 -498 974 -901 1323 -38 33 -72 63 -75 67 -17 22 -369
270 -383 270 -2 0 -42 22 -88 48 -242 140 -606 279 -854 328 -11 2 -54 11 -95
19 -136 27 -302 46 -465 51 -88 3 -165 7 -172 9 -6 2 -13 2 -15 0z"/>
</g>
</svg>
